# xmcd CD database file
#
# Track frame offsets:
#	150
#	16353
#	29894
#	46700
#	64129
#	77337
#	93719
#	109941
#	128060
#	144395
#	159429
#	179378
#
# Disc length: 2606 seconds
#
# Revision: 2
# Processed by: cddbd v1.5.2PL0 Copyright (c) Steve Scherf et al.
# Submitted via: jetAudio 7
#
DISCID=9b0a2c0c
DTITLE=The Band Perry - The Band Perry
DYEAR=2010
DGENRE=Country
TTITLE0=You Lie
TTITLE1=Hip to My Heart
TTITLE2=If I Die Young
TTITLE3=All Your Life
TTITLE4=Miss You Being Gone
TTITLE5=Double Heart
TTITLE6=Postcard from Paris
TTITLE7=Walk Me Down the Middle
TTITLE8=Independence
TTITLE9=Quittin' You
TTITLE10=Lasso
TTITLE11=If I Die Young (pop mix)
EXTD=UK edition CD. Released 19 March 2012. Universal Republic Records 
EXTD=00602527948010.
EXTT0=
EXTT1=
EXTT2=
EXTT3=
EXTT4=
EXTT5=
EXTT6=
EXTT7=
EXTT8=
EXTT9=
EXTT10=
EXTT11=
PLAYORDER=
